<svg width="23" height="23" viewBox="0 0 23 23" fill="none" xmlns="http://www.w3.org/2000/svg">
<path d="M7.41016 15.7422H14.8176" stroke="#FDFCFF" stroke-width="1.38889" stroke-linecap="round" stroke-linejoin="round"/>
<path d="M7.41016 12.0371H11.1139" stroke="#FDFCFF" stroke-width="1.38889" stroke-linecap="round" stroke-linejoin="round"/>
<path d="M12.0365 2.31453V2.77749C12.0365 5.3964 12.0365 6.70586 12.8501 7.51945C13.6637 8.33304 14.9731 8.33304 17.592 8.33304H18.055M18.5179 9.86721V12.9627C18.5179 16.4545 18.5179 18.2005 17.4331 19.2853C16.3484 20.3701 14.6024 20.3701 11.1105 20.3701C7.61864 20.3701 5.87271 20.3701 4.78791 19.2853C3.70312 18.2005 3.70313 16.4545 3.70313 12.9627V8.75512C3.70313 5.75047 3.70312 4.24815 4.52356 3.23057C4.68931 3.025 4.87656 2.83775 5.08213 2.672C6.09971 1.85156 7.60203 1.85156 10.6066 1.85156C11.26 1.85156 11.5866 1.85156 11.8857 1.95713C11.9479 1.97908 12.0089 2.00434 12.0684 2.03281C12.3546 2.16966 12.5855 2.40064 13.0475 2.86256L17.4331 7.24826C17.9684 7.7835 18.236 8.05112 18.377 8.39143C18.5179 8.73175 18.5179 9.11022 18.5179 9.86721Z" stroke="#FDFCFF" stroke-width="1.38889" stroke-linecap="round" stroke-linejoin="round"/>
</svg>
