<svg width="15" height="15" viewBox="0 0 15 15" fill="none" xmlns="http://www.w3.org/2000/svg">
<path d="M9.0625 5.625C9.0625 6.48794 8.36294 7.1875 7.5 7.1875C6.63706 7.1875 5.9375 6.48794 5.9375 5.625C5.9375 4.76206 6.63706 4.0625 7.5 4.0625C8.36294 4.0625 9.0625 4.76206 9.0625 5.625Z" stroke="white" stroke-opacity="0.7"/>
<path d="M8.28588 10.9335C8.07506 11.1365 7.79331 11.25 7.50013 11.25C7.20688 11.25 6.92513 11.1365 6.71431 10.9335C4.78394 9.063 2.19699 6.97344 3.45857 3.93983C4.14069 2.29958 5.77809 1.25 7.50013 1.25C9.22213 1.25 10.8595 2.29958 11.5416 3.93983C12.8016 6.96963 10.221 9.06944 8.28588 10.9335Z" stroke="white" stroke-opacity="0.7"/>
<path d="M11.25 12.5C11.25 13.1904 9.57106 13.75 7.5 13.75C5.42893 13.75 3.75 13.1904 3.75 12.5" stroke="white" stroke-opacity="0.7" stroke-linecap="round"/>
</svg>
